<!--?xml version="1.0" standalone="no"?-->
              <svg id="sw-js-blob-svg" viewBox="0 0 100 100" xmlns="http://www.w3.org/2000/svg" version="1.1">
                    <defs> 
                        <linearGradient id="sw-gradient" x1="0" x2="1" y1="1" y2="0">
                            <stop id="stop1" stop-color="rgba(204, 213, 229, 1)" offset="0%"></stop>
                            <stop id="stop2" stop-color="rgba(255, 255, 255, 1)" offset="100%"></stop>
                        </linearGradient>
                    </defs>
                <path fill="url(#sw-gradient)" d="M21.1,-37C26.7,-33.3,30,-26.3,32.2,-19.6C34.4,-12.8,35.4,-6.4,35.2,-0.1C34.9,6.1,33.4,12.3,30.8,18.2C28.1,24.1,24.2,29.7,18.9,34.5C13.6,39.4,6.8,43.4,-0.5,44.2C-7.7,45,-15.4,42.6,-20.5,37.6C-25.5,32.6,-27.9,25,-32.2,18.4C-36.5,11.7,-42.8,5.8,-44.3,-0.9C-45.9,-7.7,-42.9,-15.3,-37.8,-20.7C-32.7,-26,-25.6,-29.1,-19,-32.2C-12.4,-35.2,-6.2,-38.3,0.8,-39.7C7.8,-41.1,15.5,-40.7,21.1,-37Z" width="100%" height="100%" transform="translate(50 50)" stroke-width="0" style="transition: all 0.3s ease 0s;" stroke="url(#sw-gradient)"></path>
              </svg>